<svg width="20" height="20" viewBox="0 0 20 20" fill="none" xmlns="http://www.w3.org/2000/svg">
<path fill-rule="evenodd" clip-rule="evenodd" d="M10.0001 19.9999C4.48009 19.9999 9.15527e-05 15.5099 9.15527e-05 9.99988C9.15527e-05 4.47988 4.48009 -0.00012207 10.0001 -0.00012207C15.5101 -0.00012207 20.0001 4.47988 20.0001 9.99988C20.0001 15.5099 15.5101 19.9999 10.0001 19.9999ZM14.0001 8.01988C13.7001 7.72988 13.2301 7.72988 12.9401 8.02988L10.0001 10.9799L7.06009 8.02988C6.77009 7.72988 6.29009 7.72988 6.00009 8.01988C5.70009 8.31988 5.70009 8.78988 6.00009 9.07988L9.47009 12.5699C9.61009 12.7099 9.80009 12.7899 10.0001 12.7899C10.2001 12.7899 10.3901 12.7099 10.5301 12.5699L14.0001 9.07988C14.1501 8.93988 14.2201 8.74988 14.2201 8.55988C14.2201 8.35988 14.1501 8.16988 14.0001 8.01988Z" fill="#F3AB00"/>
</svg>
