<svg width="581" height="773" viewBox="0 0 581 773" fill="none" xmlns="http://www.w3.org/2000/svg">
<g clip-path="url(#clip0_804_2177)">
<path d="M131.438 188.476C135.498 191.883 140.359 194.121 144.838 196.948C152.545 201.852 159.002 208.487 163.695 216.325C166.057 220.312 168.009 224.642 171.283 227.935C179.548 236.237 194.183 234.958 203.376 227.731C212.569 220.504 217.244 208.897 219.879 197.459C222.513 185.752 223.331 173.435 220.359 161.81C217.388 150.184 210.26 139.349 199.773 133.495C192.361 129.387 183.777 127.948 175.999 124.621C154.63 115.463 146.153 113.887 134.24 133.24C123.874 149.913 112.826 172.899 131.438 188.476Z" fill="#A6BE6D" fill-opacity="0.56"/>
<path d="M368.139 565.774C381.944 551.883 392.012 534.727 397.406 515.903C403.652 493.917 403.248 470.602 407.949 448.22C412.65 425.839 424.231 402.764 445.354 394.03C473.586 382.367 507.485 403.196 518.286 431.76C529.086 460.325 521.715 492.805 508.464 520.318C495.213 547.831 476.389 572.325 462.62 599.581C453.915 616.816 447.2 635.171 436.449 651.21C412.258 687.281 359.628 696.799 329.023 660.886C298.654 625.252 345.606 588.439 368.139 565.774Z" fill="#A6BE6D" fill-opacity="0.37"/>
<path d="M188.898 568.932C171.337 581.835 152.315 562.916 150.267 545.542C148.939 534.681 153.676 524.712 150.995 513.566C148.042 501.54 139.802 490.985 133.21 480.743C117.041 455.361 96.4862 430.92 91.4851 400.245C86.7138 370.964 97.3111 341.466 101.05 311.936C103.621 291.473 96.9677 190.144 149.275 232.502L167.639 247.355C178.09 255.826 189.378 265.744 190.664 279.133C193.228 305.41 173.299 339.404 166.644 364.359C158.176 396.356 158.794 430.079 168.43 461.742C174.411 481.316 183.734 499.67 191.747 518.501C198.92 535.274 203.605 558.125 188.898 568.932Z" fill="#F2EDE7" fill-opacity="0.57"/>
<path d="M408.225 691.22C402.25 684.893 400.393 675.882 397.777 667.595C393.327 653.464 386.112 640.36 376.551 629.043C363.777 613.914 346.667 601.727 339.044 583.475C336.45 577.285 335.07 570.59 331.687 564.809C315.089 536.414 304.873 581.629 301.202 594.369C294.333 618.32 290.877 643.065 287.71 667.75C286.121 680.543 284.62 693.528 287.291 706.043C287.689 708.979 289.05 711.7 291.161 713.779C293.463 715.661 297.316 715.815 298.927 713.37C299.765 711.699 299.991 709.787 299.565 707.968C297.939 695.191 295.233 682.542 293.625 669.76C290.418 644.056 291.836 617.986 297.81 592.779C302.99 570.845 313.85 550.983 318.982 529.205C323.43 510.307 318.182 490.519 311.385 472.333C304.588 454.147 296.14 436.241 293.942 416.966C291.86 398.793 295.446 380.503 295.994 362.219C296.491 345.619 294.02 308.819 271.236 308.471C252.173 308.186 244.776 329.294 244.902 345.133C244.994 358.897 243.493 372.889 244.48 386.771C245.108 395.825 246.633 404.872 245.739 413.884C243.747 433.958 231.768 451.656 228.265 471.865C228.009 472.656 227.941 473.495 228.068 474.317C228.194 475.138 228.511 475.918 228.993 476.596C231.225 478.82 234.772 475.82 236.255 473.032C242.16 461.828 244.565 449.11 243.158 436.524C242.684 432.409 241.321 427.723 237.494 426.124C235.453 425.215 232.968 425.539 230.735 424.987C225.422 423.678 222.381 417.967 221.507 412.557C220.632 407.147 221.242 401.573 219.961 396.253C218.771 391.341 216.017 386.902 215.1 381.935C214.182 376.968 215.134 371.931 216.096 366.999C220.273 345.549 224.551 323.802 234.266 304.23C239.4 293.866 245.996 284.261 250.595 273.645C257.824 256.754 259.716 238.057 256.015 220.062C255.345 216.754 254.335 213.321 251.641 211.185C247.83 208.234 241.996 209.545 238.397 212.756C234.799 215.968 232.837 220.592 230.889 224.997C222.601 243.491 212.032 260.876 199.429 276.749C193.866 283.632 187.939 290.434 183.786 298.287C179.293 306.682 177.128 316.25 174.713 325.489C169.146 347.012 162.247 368.169 154.055 388.836C150.353 398.169 146.317 407.933 147.596 417.873C149.775 434.797 166.671 447.258 167.971 464.256C158.256 451.688 157.818 434.62 154.196 419.088C153.174 414.67 150.621 409.368 146.079 409.597C141.537 409.825 139.498 415.566 139.608 420.139C139.85 430.033 144.403 439.239 148.89 448.067C157.375 464.837 165.896 481.584 174.453 498.31C182.701 514.4 191.17 529.298 193.977 547.421C198.547 576.755 191 606.299 184.407 635.174C177.466 665.412 171.51 695.835 166.539 726.445" stroke="#222221" stroke-linecap="round" stroke-linejoin="round"/>
<path d="M203.401 270.166C197.661 262.656 192.03 255.063 186.509 247.386C183.686 243.559 180.98 239.7 178.269 235.825C176.413 233.194 173.212 229.701 176.646 226.948C177.65 226.319 178.551 225.538 179.316 224.633C179.685 224.17 179.859 223.582 179.802 222.994C179.745 222.405 179.461 221.862 179.01 221.479C177.827 220.753 176.383 221.805 175.388 222.791L170.342 227.846C169.832 228.36 169.172 228.915 168.469 228.707C168.144 228.573 167.866 228.348 167.666 228.06C166.324 226.406 166.262 225.506 164.574 224.304C162.886 223.103 160.768 222.448 158.99 221.379C147.053 214.205 135.297 206.299 124.059 198.111C121.449 196.432 119.185 194.268 117.389 191.737C116.392 190.313 115.798 188.646 115.669 186.912C115.54 185.179 115.88 183.442 116.655 181.885C117.327 180.565 118.283 179.41 119.454 178.502C120.625 177.595 121.983 176.958 123.429 176.637C120.788 172.401 118.548 167.928 116.739 163.276C115.231 159.953 114.564 156.31 114.796 152.669C114.941 150.856 115.617 149.125 116.739 147.693C117.861 146.261 119.38 145.19 121.106 144.615C122.549 144.228 124.097 144.37 125.57 144.03C126.314 143.918 127.006 143.584 127.555 143.071C128.105 142.557 128.486 141.89 128.648 141.156C128.658 140.254 128.42 139.366 127.96 138.59C126.237 135.46 124.946 132.111 124.124 128.634C122.466 120.702 125.558 114.93 133.918 114.056C138.099 113.863 142.287 114.159 146.398 114.936C154.68 115.793 163.016 116.011 171.332 115.589C182.885 115.226 194.42 114.592 205.937 113.687C211.553 113.243 217.279 112.266 222.914 112.158C226.666 112.07 230.948 113.96 234.502 115.147C238.596 116.31 242.529 117.979 246.209 120.118C250.077 122.676 252.75 127.353 256.181 130.496C258.155 131.925 259.714 133.852 260.698 136.081C261.523 138.754 260.369 141.562 259.67 144.32C258.685 147.848 258.264 151.51 258.424 155.17C258.499 157.127 258.675 159.327 257.373 160.844C256.042 158.592 255.572 155.933 256.051 153.361C256.354 150.799 257.061 148.272 257.123 145.685C257.391 135.277 247.887 127.991 240.811 122.049L210.917 96.9113C204.324 91.3617 197.555 85.6255 193.63 77.9585C191.415 74.0498 190.566 69.5139 191.219 65.0685C191.567 62.8551 192.544 60.7884 194.034 59.1144C195.523 57.4404 197.463 56.2298 199.621 55.6268C202.605 55.1999 205.648 55.5896 208.428 56.7544C221.218 61.0749 232.582 68.7259 243.78 76.2953L277.336 98.996C284.034 103.529 290.797 108.098 296.272 114.038C301.974 120.221 306.093 127.674 310.093 135.087C317.508 148.337 324.206 161.977 330.156 175.946C335.802 189.767 349.358 198.017 350.385 214.333C350.813 221.23 348.947 228.021 348.232 234.882C347.17 244.945 348.575 255.085 349.692 265.158C352.389 289.914 353.201 314.84 352.122 339.719C351.607 351.218 349.607 362.342 348.885 373.537C348.143 385.06 352.739 396.376 357.583 406.601C372.199 437.397 391.436 465.84 411.74 493.17C445.003 538.041 481.323 580.564 520.44 620.436C524.862 624.932 529.486 632.123 525.255 636.798C523.602 638.305 521.581 639.349 519.396 639.825C512.921 641.829 505.619 643.768 499.626 640.592C495.154 638.195 492.514 633.509 490.039 629.103C471.746 596.399 449.672 566.02 426.793 536.396C404.625 507.749 381.418 479.382 362.771 448.174C358.411 440.894 355.602 433.161 352.095 425.509C348.588 417.856 343.746 411.459 341.839 403.27C339.559 393.419 341.375 383.153 342.749 373.114C343.273 369.234 343.602 364.958 341.316 361.795C340.718 360.911 339.858 360.236 338.857 359.865C337.891 359.641 336.88 359.719 335.959 360.088C335.039 360.456 334.254 361.099 333.71 361.928C332.649 363.609 332.056 365.542 331.992 367.529C329.686 392.001 347.344 413.749 360.241 432.691C375.524 455.105 391.575 476.984 408.393 498.327C443.739 543.342 485.851 582.139 515.407 631.582C518.22 636.311 521.06 641.608 520.14 647.031C519.253 650.544 517.592 653.814 515.279 656.603C508.315 666.378 501.152 676.351 491.344 683.293C472.018 696.992 446.338 696.503 422.682 695.453" stroke="#222221" stroke-linecap="round" stroke-linejoin="round"/>
<path d="M225.061 236.193C225.48 234.415 226.255 232.741 227.338 231.269C227.885 230.527 228.225 229.652 228.324 228.735C228.423 227.818 228.276 226.891 227.899 226.049C227.248 225.192 226.403 224.501 225.434 224.031C221.853 221.715 218.606 218.92 215.783 215.724L199.117 198.618C198.729 198.274 198.41 197.859 198.178 197.396C197.29 195.423 199.46 193.457 201.351 192.465C203.243 191.473 205.448 189.569 204.72 187.59C204.307 186.845 203.621 186.29 202.806 186.042C201.991 185.794 201.112 185.873 200.354 186.261C194.422 188.749 192.466 194.198 185.211 192.619C177.955 191.04 170.938 188.336 163.805 186.544C151.657 183.436 139.464 180.675 127.227 178.262" stroke="#222221" stroke-linecap="round" stroke-linejoin="round"/>
<path d="M323.759 284.33C314.533 264.458 313.179 242.225 312.101 220.691C311.617 210.161 311.556 199.265 310.414 188.894C309.295 178.947 304.384 169.747 303.868 159.567C303.513 152.472 304.05 147.294 301.024 140.969C298.287 135.249 298.57 128.252 294.806 122.861C288.952 114.435 270.822 115.284 266.897 125.396C265.932 128.604 265.738 131.994 266.33 135.291C266.926 141.207 267.539 147.119 268.136 153.035C268.208 154.82 268.594 156.579 269.276 158.23C270.139 159.738 271.366 161.006 272.845 161.919C274.324 162.832 276.007 163.361 277.743 163.457C281.221 163.59 284.695 163.11 288.006 162.037C291.317 161.459 294.277 159.63 296.275 156.928C297.57 155.053 299.887 150.279 295.829 149.695C294.835 149.666 293.852 149.907 292.985 150.392C292.117 150.878 291.398 151.59 290.904 152.453C289.756 154.073 289.042 155.972 287.779 157.496C280.837 165.81 268.45 158.235 260.232 162.523C258.787 163.408 257.575 164.626 256.696 166.074C255.818 167.523 255.298 169.161 255.181 170.851C254.991 174.224 255.292 177.607 256.074 180.894C259.893 202.161 260.592 223.871 258.15 245.34" stroke="#222221" stroke-linecap="round" stroke-linejoin="round"/>
<path d="M225.637 237.334C225.518 237.956 225.6 238.6 225.87 239.174C226.14 239.747 226.584 240.221 227.139 240.526C228.298 241.113 229.611 241.321 230.894 241.12C238.406 240.366 243.946 233.866 247.989 227.551C250.347 223.791 252.479 219.895 254.374 215.882" stroke="#222221" stroke-linecap="round" stroke-linejoin="round"/>
<path d="M287.131 317.801C286.989 320.895 286.607 323.964 286.654 327.025C286.701 330.087 286.79 333.64 286.593 336.929C286.547 338.596 286.322 340.253 285.921 341.872C285.32 343.91 284.244 345.776 282.782 347.318C281.32 348.859 279.513 350.033 277.51 350.741C275.403 351.268 273.253 351.597 271.085 351.726C268.391 352.202 265.647 352.333 262.919 352.116C261.343 352.058 259.82 351.534 258.542 350.61C257.922 350.128 257.484 349.45 257.299 348.687C257.114 347.923 257.193 347.12 257.524 346.407C258.601 344.591 261.266 344.739 263.317 345.214C263.82 345.28 264.284 345.518 264.63 345.887C264.8 346.213 264.863 346.584 264.808 346.948C264.754 347.311 264.585 347.648 264.327 347.91C260.777 352.241 255.886 345.732 254.906 342.543C254.234 339.884 253.96 337.141 254.091 334.402C254.036 328.425 254.007 322.501 254.004 316.629" stroke="#222221" stroke-linecap="round" stroke-linejoin="round"/>
<path d="M257.769 191.243C249.128 181.407 240.959 170.042 231.292 161.343C230.847 160.978 230.46 160.549 230.142 160.069C229.115 158.385 230.019 156.255 230.67 154.391C231.247 152.765 231.627 151.076 231.803 149.36C231.935 148.576 231.873 147.772 231.625 147.017C231.496 146.632 231.248 146.298 230.917 146.064C230.586 145.829 230.189 145.706 229.783 145.713C228.454 145.853 228.061 147.54 227.741 148.83C224.827 160.163 208.379 155.816 199.903 155.588C183.064 155.299 166.258 153.979 149.58 151.636C144.19 151.126 138.898 149.87 133.854 147.904C132.059 147.109 130.03 145.441 130.702 143.589L163.268 151.725C165.675 152.32 168.082 152.916 170.481 153.549" stroke="#222221" stroke-linecap="round" stroke-linejoin="round"/>
<path d="M147.037 412.971C148.091 405.498 149.179 398.016 150.519 390.467C153.258 375.19 156.032 359.778 155.788 344.24C155.578 331.713 153.736 318.329 160.291 307.765C165.32 299.694 173.997 295.104 180.947 289.035C188.473 282.363 193.28 273.597 198.705 265.258C198.985 264.824 198.89 265.946 199.233 265.548" stroke="#222221" stroke-linecap="round" stroke-linejoin="round"/>
<path d="M378.689 339.09C377.348 330.461 377.852 321.338 382.051 313.256C384.227 309.011 387.378 305.341 391.244 302.545C395.111 299.75 399.584 297.91 404.298 297.174C417.478 295.566 428.755 304.301 436.443 313.602C445.007 323.89 451.612 336.124 452.103 349.367C452.789 367.159 436.224 390.221 413.812 386.429C393.66 383.021 381.139 355.079 378.689 339.09Z" fill="#F5AC00" fill-opacity="0.63"/>
<path d="M368.909 269.374C370.302 263.033 376.475 257.352 382.839 258.757C388.746 260.068 392.021 266.723 392.153 272.781C392.357 277.367 390.894 281.871 388.035 285.461C375.463 300.209 366.123 282.129 368.909 269.374Z" fill="#F5EEE4"/>
</g>
<defs>
<clipPath id="clip0_804_2177">
<rect width="417.282" height="687.148" fill="white" transform="translate(0 108.27) rotate(-15)"/>
</clipPath>
</defs>
</svg>
