<svg width="1600" height="173" viewBox="0 0 1600 173" fill="none" xmlns="http://www.w3.org/2000/svg">
<path d="M-136 0.5H-183.5V157L1786.5 173V157H1768H1746L1716 156H1679.5H1654H1626L1600 155H1592.5L1571.5 152.5L1547.5 149.5L1520.5 146L1493 142.5L1455.5 138L1421 132L1389 127L1364 123L1339 118L1310.5 113.5L1283.5 109.5L1254 104L1228.5 99L1204.5 95L1178.5 90L1155.5 86.5L1131.5 82.5L1109 79L1085.5 75L1062.5 71.5L1039 68.5L1018 65.5L998 63L972 60L948.5 58.5L926.5 56.5L907 55.5L882 54L854 53L828.5 52L805.5 51H781H748.5H715H687H654H622H592H560H522.5H482.5H443.5L404.5 50H367L324.5 49H286L245.5 46.5L203.5 45L160 41L119.5 37.5L76.5 33L35.5 27L-1 20.5L-42.5 13.5L-85 6.5L-136 0.5Z" fill="white"/>
</svg>
