<svg width="20" height="20" viewBox="0 0 20 20" fill="none" xmlns="http://www.w3.org/2000/svg">
<path fill-rule="evenodd" clip-rule="evenodd" d="M7.91663 10.4616C10.2121 10.4616 12.0522 8.59771 12.0522 6.27253C12.0522 3.94735 10.2121 2.0835 7.91663 2.0835C5.62115 2.0835 3.7811 3.94735 3.7811 6.27253C3.7811 8.59771 5.62115 10.4616 7.91663 10.4616ZM7.91663 12.5128C4.54515 12.5128 1.66663 13.0519 1.66663 15.2055C1.66663 17.3583 4.52763 17.9168 7.91663 17.9168C11.2873 17.9168 14.1666 17.3778 14.1666 15.2241C14.1666 13.0705 11.3056 12.5128 7.91663 12.5128ZM16.5816 7.99005H17.5841C17.9968 7.99005 18.3333 8.33125 18.3333 8.74973C18.3333 9.1682 17.9968 9.50941 17.5841 9.50941H16.5816V10.4905C16.5816 10.909 16.246 11.2502 15.8324 11.2502C15.4198 11.2502 15.0833 10.909 15.0833 10.4905V9.50941H14.0824C13.6689 9.50941 13.3333 9.1682 13.3333 8.74973C13.3333 8.33125 13.6689 7.99005 14.0824 7.99005H15.0833V7.00984C15.0833 6.59137 15.4198 6.25016 15.8324 6.25016C16.246 6.25016 16.5816 6.59137 16.5816 7.00984V7.99005Z" fill="#222222"/>
</svg>
