<svg width="20" height="20" viewBox="0 0 20 20" fill="none" xmlns="http://www.w3.org/2000/svg">
<path fill-rule="evenodd" clip-rule="evenodd" d="M5.63739 1.39549C3.06039 1.39549 1.39539 3.16249 1.39539 5.88849V14.1025C1.39539 14.8675 1.53739 15.5505 1.78039 16.1415C1.79088 16.129 2.01974 15.8501 2.31828 15.4863C2.90176 14.7752 3.75144 13.7398 3.75739 13.7345C4.44939 12.9445 5.74839 11.7665 7.45339 12.4795C7.827 12.6344 8.1591 12.8466 8.4648 13.042C8.49458 13.061 8.5241 13.0799 8.55339 13.0985C9.12639 13.4815 9.46339 13.6615 9.81339 13.6315C9.95839 13.6115 10.0944 13.5685 10.2234 13.4885C10.71 13.1885 11.9716 11.4009 12.3494 10.8656C12.4048 10.7871 12.4412 10.7355 12.4534 10.7195C13.5434 9.29949 15.2234 8.91949 16.6234 9.75949C16.8114 9.87149 18.1584 10.8125 18.6044 11.1905V5.88849C18.6044 3.16249 16.9394 1.39549 14.3534 1.39549H5.63739ZM14.3534 0.000488281C17.7304 0.000488281 19.9994 2.36249 19.9994 5.88849V14.1025C19.9994 14.1912 19.9901 14.2743 19.9808 14.3574C19.9742 14.4159 19.9677 14.4742 19.9644 14.5345C19.9622 14.5709 19.9612 14.6073 19.9602 14.6438C19.9588 14.6923 19.9574 14.7409 19.9534 14.7895C19.9514 14.8085 19.9476 14.8267 19.9439 14.845C19.9401 14.8632 19.9364 14.8815 19.9344 14.9005C19.9014 15.2145 19.8504 15.5145 19.7794 15.8055C19.7626 15.8782 19.7432 15.9483 19.7237 16.0191L19.7194 16.0345C19.6394 16.3165 19.5454 16.5855 19.4324 16.8425C19.4126 16.8857 19.3917 16.9278 19.3708 16.9699C19.3569 16.998 19.343 17.0261 19.3294 17.0545C19.2074 17.2995 19.0754 17.5345 18.9224 17.7525C18.8941 17.7928 18.864 17.8307 18.8338 17.8685C18.8138 17.8936 18.7939 17.9186 18.7744 17.9445C18.6154 18.1505 18.4494 18.3475 18.2614 18.5265C18.2239 18.5622 18.1833 18.5948 18.1427 18.6275C18.1174 18.6479 18.092 18.6683 18.0674 18.6895C17.8744 18.8555 17.6774 19.0145 17.4604 19.1505C17.413 19.1802 17.3627 19.2052 17.3126 19.2301C17.2802 19.2462 17.2478 19.2622 17.2164 19.2795C16.9954 19.4015 16.7724 19.5205 16.5294 19.6125C16.4709 19.6347 16.4087 19.6508 16.3463 19.6669C16.302 19.6783 16.2576 19.6898 16.2144 19.7035C16.1928 19.7102 16.1711 19.7169 16.1495 19.7236C15.9325 19.7912 15.7161 19.8585 15.4824 19.8985C15.347 19.9222 15.2033 19.9313 15.0595 19.9405C14.9972 19.9444 14.935 19.9484 14.8734 19.9535C14.8072 19.9584 14.7422 19.9664 14.6772 19.9744C14.5715 19.9874 14.4655 20.0005 14.3534 20.0005H5.63739C5.26139 20.0005 4.90239 19.9625 4.55539 19.9055C4.54239 19.9035 4.53039 19.9015 4.51839 19.8995C3.16539 19.6665 2.04239 19.0135 1.25539 18.0285C1.24992 18.0285 1.24778 18.0248 1.24492 18.0199C1.24307 18.0167 1.24092 18.013 1.23739 18.0095C0.44639 17.0135 -0.000610352 15.6745 -0.000610352 14.1025V5.88849C-0.000610352 2.36249 2.27039 0.000488281 5.63739 0.000488281H14.3534ZM8.99999 6.51505C8.99999 7.87 7.86627 9.00009 6.50483 9.00009C5.30813 9.00009 4.28778 8.12574 4.0591 6.99372C4.02131 6.82387 3.99999 6.64919 3.99999 6.46872C3.99999 5.10412 5.10852 4.00009 6.47867 4.00009C7.17635 4.00009 7.80813 4.29347 8.26065 4.76152C8.71511 5.21317 8.99999 5.83564 8.99999 6.51505Z" fill="white"/>
</svg>
