<svg width="20" height="20" viewBox="0 0 20 20" fill="none" xmlns="http://www.w3.org/2000/svg">
<path d="M15.1389 11.983C14.5791 11.8626 14.1363 12.1225 13.7442 12.3494C13.3427 12.5833 12.5791 13.2027 12.1415 13.0442C9.90074 12.1216 7.79328 10.1604 6.88099 7.91064C6.7202 7.46364 7.33671 6.69525 7.56886 6.28897C7.79414 5.89568 8.04865 5.44868 7.93257 4.88474C7.82767 4.37797 6.47085 2.65148 5.99106 2.17936C5.67464 1.8675 5.35049 1.69598 5.01773 1.66826C3.76667 1.61455 2.36943 3.28386 2.12438 3.68322C1.51046 4.53476 1.5139 5.66785 2.1347 7.04176C3.63081 10.7321 9.28939 16.3014 12.9936 17.8537C13.6771 18.1734 14.3022 18.3337 14.8637 18.3337C15.4131 18.3337 15.9024 18.1803 16.3229 17.8763C16.6401 17.6935 18.3779 16.2269 18.3323 14.9422C18.3048 14.6147 18.1337 14.2873 17.8258 13.9702C17.3572 13.486 15.6419 12.0887 15.1389 11.983Z" fill="#222222"/>
</svg>
