<svg width="14" height="15" viewBox="0 0 14 15" fill="none" xmlns="http://www.w3.org/2000/svg">
<path d="M6.04894 1.92705C6.3483 1.00574 7.6517 1.00574 7.95106 1.92705L8.79611 4.52786C8.92999 4.93989 9.31394 5.21885 9.74717 5.21885H12.4818C13.4505 5.21885 13.8533 6.45846 13.0696 7.02786L10.8572 8.63525C10.5067 8.8899 10.3601 9.34127 10.494 9.75329L11.339 12.3541C11.6384 13.2754 10.5839 14.0415 9.80017 13.4721L7.58779 11.8647C7.2373 11.6101 6.7627 11.6101 6.41221 11.8647L4.19983 13.4721C3.41612 14.0415 2.36164 13.2754 2.66099 12.3541L3.50604 9.75329C3.63992 9.34127 3.49326 8.8899 3.14277 8.63525L0.930391 7.02787C0.146678 6.45846 0.549452 5.21885 1.51818 5.21885H4.25283C4.68606 5.21885 5.07001 4.93989 5.20389 4.52786L6.04894 1.92705Z" stroke="white"/>
</svg>
