<svg width="40" height="40" viewBox="0 0 40 40" fill="none" xmlns="http://www.w3.org/2000/svg">
<path fill-rule="evenodd" clip-rule="evenodd" d="M40.0002 20C40.0002 31.04 31.0202 40 20.0002 40L19.4407 39.9923C8.65909 39.6957 0.000244141 30.8529 0.000244141 20C0.000244141 8.98 8.96024 0 20.0002 0C31.0202 0 40.0002 8.98 40.0002 20ZM16.0402 12C15.4602 12.6 15.4602 13.54 16.0602 14.12L21.9602 20L16.0602 25.88C15.4602 26.46 15.4602 27.42 16.0402 28C16.6402 28.6 17.5802 28.6 18.1602 28L25.1402 21.06C25.4202 20.78 25.5802 20.4 25.5802 20C25.5802 19.6 25.4202 19.22 25.1402 18.94L18.1602 12C17.8802 11.7 17.5002 11.56 17.1202 11.56C16.7202 11.56 16.3402 11.7 16.0402 12Z" fill="#D5D5D5"/>
</svg>
