<svg width="539" height="730" viewBox="0 0 539 730" fill="none" xmlns="http://www.w3.org/2000/svg">
<path opacity="0.5" d="M63.79 254.887C46.17 266.957 26.16 264.447 19.76 244.257C13.68 225.007 19.23 199.347 21.38 178.007C22.59 166.077 23.44 154.167 22.93 142.527C22.46 131.777 21 121.317 20.12 110.697C18.37 90.0668 19.65 68.7768 29.51 48.1768C36.2464 33.9731 46.1012 21.4727 58.34 11.6068C61.4354 8.84873 64.8698 6.49644 68.56 4.60681C69.18 4.23681 69.78 3.86681 70.4 3.51681C71.2438 3.02108 72.1793 2.70132 73.15 2.57681C83.88 -1.42319 95.2 -0.853191 104.15 4.89681C121.15 15.8268 126.33 38.8268 123.86 62.5468C122.73 73.4068 120.56 84.2868 119.18 95.1268C117.68 106.917 117.75 118.497 117.61 130.127C117.35 153.547 114.32 176.307 104.61 199.297C95.87 219.957 81.48 242.757 63.79 254.887Z" fill="#FAD6D5"/>
<path d="M80.2601 243.202C56.4101 263.8 43.8784 296.591 47.6679 327.812C51.2323 357.153 68.654 384.14 92.8668 401.289C117.08 418.437 147.608 425.76 177.211 423.705C205.514 421.75 235.142 409.67 249.012 385.036C258.204 368.71 259.342 348.921 256.516 330.44C251.513 296.74 233.591 265.319 207.827 243.015C185.316 223.512 165.905 218.245 136.402 220.412C115.726 221.849 96.0527 229.835 80.2601 243.202Z" fill="#F5AC00" fill-opacity="0.37"/>
<path opacity="0.5" d="M398.18 318.957C392.29 356.827 385.18 394.637 375.4 431.807C365.46 469.667 352.64 506.957 335.4 542.477C326.06 561.807 312.28 595.617 288.17 602.817C286.188 604.789 283.718 606.199 281.012 606.902C278.306 607.605 275.461 607.575 272.77 606.817C192.76 586.827 140 511.537 154 434.767C160.53 398.967 181.95 369.717 202.06 339.547C212.2 324.277 221.06 308.797 227.17 291.667C233.44 273.967 237.69 255.667 245.04 238.247C257.54 208.637 282.27 178.957 318.1 173.987C353.1 169.117 383.18 191.847 395.29 221.437C408.05 252.647 403.18 286.767 398.18 318.957Z" fill="#FCE8BA"/>
<path d="M434.869 729.363C427.382 707.34 416.922 686.37 410.12 664.103C406.911 653.485 405.403 642.867 403.607 631.973C402.537 625.719 400.676 619.337 395.489 615.238C389.072 610.163 379.756 609.112 371.842 608.464C361.068 607.679 350.236 608.336 339.638 610.418C318.055 614.463 297.446 623.744 278.558 634.68C269.471 639.784 260.879 645.709 252.889 652.381C245.724 658.539 239.242 665.441 232.183 671.716C225.125 677.992 217.21 684.66 207.862 686.89C203.584 687.952 198.333 688.164 195.092 684.671C192.098 681.485 191.681 676.505 191.702 672.354C191.856 666.662 192.619 661.002 193.98 655.471C196.675 643.408 200.707 631.697 204.515 619.964C207.05 612.159 210.686 603.176 207.723 594.947C204.515 586.219 194.889 592.303 190.119 596.009C181.154 603.237 173.369 611.797 167.039 621.386C162.761 627.757 160.023 635.19 157.327 642.4C155.285 647.836 153.359 653.336 151.253 658.762C149.274 663.88 146.857 668.796 144.835 673.883C141.028 683.354 138.803 693.77 132.867 702.265C130.45 705.726 127.071 709.464 122.825 710.653C117.263 712.193 114.611 706.342 115.402 701.649C116.129 697.306 118.504 693.155 120.536 689.353C122.835 684.989 124.942 680.551 127.124 676.134C132.757 664.723 138.6 653.397 144.654 642.155C150.258 631.707 156.418 621.492 161.552 610.8C166.194 601.116 170.108 591.029 175.83 581.876C178.415 577.514 181.661 573.575 185.456 570.196C189.007 567.408 192.733 564.848 196.611 562.53C202.686 558.569 208.29 553.961 210.515 546.794C211.852 542.355 211.584 537.354 213.723 533.171C216.558 527.681 222.707 524.995 228.697 524.75C237.488 524.389 245.232 528.307 251.831 533.712C254.932 536.25 258.13 539.223 259.948 542.833C262.087 547.006 260.633 551.689 255.67 552.793C248.365 554.428 239.381 549.671 233.691 545.562C229.552 542.568 225.306 538.724 223.338 533.882C221.146 528.573 223.338 524.973 227.456 521.767C233.317 517.19 233.499 511.148 232.879 504.257C232.526 500.328 232.108 496.081 234.205 492.513C236.611 488.394 241.798 485.803 246.483 485.41C254.173 484.762 261.264 489.275 267.595 493.002C273.05 496.187 278.911 499.999 285.403 500.562C291.232 501.061 296.515 498.215 300.376 494.053C309.339 484.412 311.542 469.472 311.51 456.89C311.51 445.21 309.852 430.779 301.478 421.85C293.542 413.355 282.077 413.833 273.242 420.703C264.408 427.573 258.483 439.433 259.948 450.689C261.649 463.834 273.916 472.105 285.938 475.397C300.558 479.411 316.387 477.138 330.729 473.04C346.929 468.223 362.399 461.255 376.719 452.324C387.885 445.517 398.751 437.756 407.82 428.327C411.435 424.568 415.938 420.83 418.516 416.286C420.672 412.522 422.056 408.372 422.591 404.075C423.061 399.466 421.361 395.113 419.307 391.057C409.157 370.957 393.97 353.787 384.377 333.336C375.264 313.926 374.751 291.713 376.697 270.689C377.529 261.476 378.958 252.325 380.975 243.294C382.761 236.24 384.157 229.094 385.157 221.888C386.419 210.909 385.318 193.76 371.061 191.902C362.697 190.84 359.66 200.131 360.152 206.768C360.761 215.114 366.248 223.173 375.435 222.759C390.483 222.09 398.687 207.224 397.435 193.644C395.938 177.493 383.981 164.741 369.168 159.092C356.334 154.208 340.419 153.242 327.531 158.582C323.392 160.292 317.906 163.753 317.446 168.712C317.082 172.354 319.371 176.761 320.537 180.095C322.162 184.724 332.194 207.479 323.264 209.221C322.451 209.369 320.44 209.528 319.938 208.817C318.986 207.458 320.879 205.823 322.013 205.632C324.729 205.228 328.034 207.543 330.12 209.008C335.467 212.746 342.473 219.828 338.751 226.921C335.146 233.77 324.216 230.499 319.253 227.261C310.569 221.591 304.644 211.907 298.996 203.508C286.932 185.553 272.847 168.903 256.28 154.877C248.162 148.007 239.338 141.073 234.002 131.676C232.472 128.979 228.975 122.417 234.312 121.695C239.146 121.037 245.114 124.126 249.285 126.186C256.462 129.754 263.927 134.086 269.413 139.99C271.63 142.313 273.631 144.829 275.392 147.508C276.772 149.631 278.729 153.443 274.323 152.551C270.184 151.712 267.317 147.752 264.943 144.588C262.569 141.423 260.408 137.994 257.852 134.915C255.103 131.602 251.435 129.223 247.777 126.951C245.563 125.56 243.317 124.222 241.146 122.704C239.863 121.844 238.59 120.941 237.392 119.954C237.232 119.826 235.67 118.732 235.552 118.371C235.274 117.479 236.355 114.018 237.178 113.869C238.665 113.604 240.943 114.634 242.355 115.08C244.397 115.727 246.397 116.492 248.376 117.299C252.28 118.87 256.077 120.676 259.895 122.428C262.996 123.84 266.419 124.551 269.285 126.462C272.911 128.83 275.852 132.175 279.125 134.957C282.478 137.644 285.644 140.553 288.601 143.664C290.059 145.115 291.18 146.866 291.884 148.792C292.451 150.714 292.783 156.353 289.232 154.834C287.093 153.932 286.248 150.661 286.023 148.633C285.866 147.205 286.041 145.759 286.534 144.408C287.027 143.057 287.826 141.837 288.868 140.839C293.382 136.667 299.424 139.279 302.216 143.908C303.756 146.467 304.087 149.939 300.964 151.532C298.258 152.912 295.767 151.405 295.157 148.559C294.973 147.778 294.969 146.966 295.146 146.183C295.324 145.401 295.677 144.668 296.181 144.041C296.684 143.413 297.324 142.907 298.052 142.561C298.781 142.214 299.579 142.036 300.387 142.039C305.05 142.135 309.339 146.51 312.344 149.578C321.735 159.135 328.997 170.889 336.066 182.208C338.761 186.529 341.414 190.904 344.13 195.183C348.237 201.554 353.382 207.33 358.334 213.054C389.211 248.731 426.355 279.778 465.019 306.802C474.505 313.427 484.27 319.543 494.045 325.766C502.677 331.287 511.158 337.339 517.575 345.388C523.992 353.437 528.195 363.534 531.693 373.123C535.35 383.125 538.056 393.764 537.939 404.468C537.821 414.597 534.645 425.821 526.858 432.85C520.292 438.775 512.067 437.628 504.805 433.625C497.543 429.622 491.233 423.676 485.179 417.963C477.286 410.531 469.553 402.928 462.131 395.017C453.789 386.119 445.735 376.967 437.821 367.686C429.906 358.406 421.992 349.317 414.901 339.506C408.377 330.459 402.227 321.009 394.516 312.896C392.013 310.263 389.318 307.821 386.933 305.06C384.387 302.108 379.703 296.47 382.473 292.318C386.291 286.627 399.318 291.968 404.398 293.582C411.103 295.843 417.478 298.97 423.361 302.883C434.719 310.168 451.297 323.493 447.756 338.922C445.96 346.779 439.093 353.394 430.901 354.148C427.24 354.434 423.57 353.74 420.272 352.137C416.974 350.535 414.17 348.083 412.152 345.038C407.874 338.295 409.243 328.664 415.125 323.185C420.58 318.11 426.58 323.865 429.874 328.42C433.823 333.946 436.623 340.198 438.109 346.811C440.248 356.367 436.355 366.253 433.04 375.066C431.093 380.258 429.04 385.44 427.617 390.813C426.37 396.136 425.526 401.546 425.093 406.995C423.778 419.535 423.2 432.139 422.837 444.732C422.473 457.123 422.313 469.515 421.853 481.895C421.478 491.94 422.099 503.068 418.377 512.582C417.307 515.353 415.617 519.388 412.879 520.96C408.89 523.243 407.361 516.914 406.751 514.164C405.681 509.651 406.013 504.926 405.863 500.36C405.807 494.92 405.248 489.496 404.195 484.157C403.489 480.972 402.28 476.342 398.847 474.877C395.2 473.316 390.826 476.544 388.687 479.241C384.751 484.21 384.238 491.494 383.938 497.557C383.553 505.255 384.227 512.964 383.82 520.662C383.596 524.91 382.227 528.913 380.868 532.894C379.328 537.407 370.665 562.498 362.826 553.589C358.548 548.758 360.537 543.279 366.761 542.037C372.986 540.794 379.082 544.16 379.917 550.584C380.633 556.169 377.403 561.436 373.286 564.972C369.745 568.019 366.441 568.295 362.045 568.89C358.27 569.4 352.804 571.332 355.157 576.259C357.36 580.867 365.564 582.513 369.927 583.692C376.505 585.433 383.264 586.644 389.927 588.056C397.585 589.67 407.157 591.432 413.724 585.932C421.072 579.784 422.141 570.196 421.521 561.266C420.698 549.438 419.692 537.747 419.671 525.876C419.649 514.005 420.494 502.091 418.355 490.316C416.216 478.54 412.526 467.306 409.949 455.732C407.189 443.351 404.708 430.896 401.607 418.569C395.81 395.432 386.398 373.569 377.542 351.43C373.136 340.419 368.922 329.323 365.532 317.961C363.681 311.76 363.467 305.655 363.596 299.241C363.692 293.932 363.81 288.538 362.28 283.41C359.745 274.915 352.9 267.992 346.141 262.524C338.977 256.774 330.942 252.187 322.333 248.933C313.243 245.439 303.756 243.124 294.526 240.045C288.109 237.921 279.799 234.672 273.135 237.614C272.793 237.762 272.836 238.208 273.028 238.442C275.948 241.978 284.045 244.494 287.328 240.003C290.857 235.182 283.702 229.384 280.643 226.581C275.531 221.93 269.553 218.087 264.782 213.043C259.788 207.808 255.242 202.053 249.456 197.615C246.857 195.629 240.622 191.849 238.429 196.649C236.579 200.684 243.424 205.748 245.841 207.861C249.745 211.27 256.536 214.944 256.098 220.954C255.691 226.56 246.023 219.531 244.034 218.161C239.018 214.731 234.408 210.834 229.659 207.001C223.723 202.159 215.959 200.153 210.194 195.13C208.05 193.313 206.513 190.891 205.788 188.186C204.943 184.661 207.841 184.629 210.397 185.223C215.681 186.445 220.739 189.471 225.317 192.242C236.119 198.825 245.531 207.309 255.381 215.156C258.761 217.842 262.686 220.04 265.563 223.29C267.702 225.689 268.643 228.992 265.649 231.253C264.113 232.196 262.411 232.841 260.633 233.154C250.857 235.724 241.039 236.626 231.071 234.556C221.306 232.527 211.82 228.779 201.723 228.408C195.809 228.195 189.873 228.248 183.991 227.611C182.654 227.463 178.023 227.356 177.178 225.912C176.033 223.959 182.6 221.665 183.777 221.23C194.686 217.078 207.306 218.044 218.643 219.733C228.451 221.166 240.536 222.812 248.355 229.384C253.146 233.409 253.702 242.063 259.649 244.77C262.312 245.991 264.889 244.77 267.061 243.135C267.159 243.074 267.236 242.984 267.28 242.877C267.324 242.77 267.333 242.653 267.307 242.54C265.659 232.018 250.194 232.103 242.13 230.945C233.884 229.767 225.681 228.344 217.413 227.303C206.472 225.923 195.338 224.787 184.258 225.339C178.119 225.636 168.279 226.093 164.579 231.997C163.8 233.237 163.395 234.674 163.412 236.136C163.429 237.598 163.867 239.024 164.675 240.247C166.975 243.337 171.702 243.262 175.146 242.997C180.301 242.593 185.338 241.266 190.397 240.289C195.691 239.228 200.525 239.716 205.841 240.512C212.778 241.503 219.614 243.098 226.269 245.28C231.98 247.202 240.74 250.313 242.857 256.705C244.515 261.696 239.371 264.286 235.306 265.093C229.959 266.155 224.344 264.86 219.135 263.671C213.328 262.333 207.691 261.005 201.713 260.782C197.542 260.623 182.033 260.209 184.6 268.215C186.269 273.344 192.857 277.379 197.435 279.385C204.921 282.677 213.242 283.155 221.199 284.695C238.312 288.082 253.991 297.213 271.724 297.872C278.462 298.116 285.21 297.266 291.948 297.266C298.922 297.266 307.296 297.734 312.633 302.799C319.136 308.968 317.852 318.928 318.494 327.008C319.307 337.17 321.371 347.183 323.467 357.174C327.638 377.02 331.938 396.918 332.804 417.241C333.649 437.002 330.387 456.847 333.874 476.48C337.307 495.89 345.104 514.132 349.917 533.202C350.933 537.227 351.777 541.283 352.526 545.371C353.157 548.854 353.863 552.581 353.093 556.106C351.51 563.273 340.879 569.909 333.745 567.467C329.809 566.108 326.259 563.082 323.05 560.64C318.601 557.316 314.269 553.833 310.034 550.245C302.676 544.001 295.585 537.503 288.59 530.803C273.948 516.85 259.52 502.718 244.547 489.116C229.574 475.514 214.493 462.294 200.119 448.204C174.632 423.23 151.092 394.826 138.087 361.347C134.816 353.351 132.366 345.048 130.771 336.564C130.279 333.655 129.702 329.917 130.771 327.072C132.525 322.315 137.809 325.203 140.515 327.613C145.937 332.434 148.9 339.824 151.798 346.291C154.386 352.067 157.392 357.578 160.29 363.216C163.673 369.506 166.511 376.07 168.771 382.838C170.579 388.604 172.472 396.185 169.188 401.792C165.274 408.492 155.937 410.286 149.22 407.228C143.873 404.818 139.595 400.422 135.819 396.09C131.145 390.781 126.782 385.705 124.055 379.048C120.846 371.073 118.953 362.483 116.643 354.222C113.755 344.388 111.962 334.268 111.295 324.046C110.846 315.466 111.231 306.876 116.311 299.624C120.493 293.614 126.686 289.207 132.429 284.758C138.974 279.725 145.52 274.618 151.231 268.64C156.226 263.394 161.52 256.96 162.215 249.463C162.632 244.983 161.563 240.502 161.948 236.021C162.354 231.243 164.868 227.144 167.295 223.098C171.499 216.027 174.226 208.976 172.996 200.62C171.691 191.775 167.221 183.716 165.798 174.892C164.376 166.068 166.793 157.436 165.648 148.686C164.803 142.167 162.269 135.69 156.942 131.538C147.477 124.169 133.584 125.454 122.354 125.889C110.322 126.356 93.4769 127.131 85.6373 116.046C77.7335 104.823 80.2148 87.1327 85.5624 75.3572C88.2683 69.4959 92.3539 63.9214 98.2149 60.8633C102.707 58.5167 110.3 56.5099 114.546 60.3855C121.188 66.4379 116.686 79.923 114.012 86.8036C108.996 99.6091 97.7977 111.459 85.3913 117.384C77.3378 121.26 67.3056 122.481 59.1666 118.138C54.6639 115.738 48.2574 110.323 43.1237 114.177C40.3002 116.301 38.8456 119.125 35.0916 119.975C30.9632 120.899 30.4178 116.789 30.2039 113.604C29.6584 105.322 30.9953 98.7384 36.8991 92.6117C41.4446 87.9185 46.7387 84.0004 51.2414 79.254C54.5355 75.7713 58.3537 71.1311 56.9527 66.0238C56.9295 65.9456 56.8888 65.8736 56.8337 65.8132C56.7786 65.7528 56.7104 65.7055 56.6343 65.6749C56.5583 65.6443 56.4762 65.6311 56.3943 65.6364C56.3124 65.6416 56.2327 65.6652 56.1612 65.7052C47.22 72.0761 42.4178 86.5912 52.5997 94.0345C52.6815 94.0815 52.7744 94.106 52.869 94.1057C52.9635 94.1054 53.0562 94.0802 53.1377 94.0327C53.2192 93.9852 53.2866 93.9171 53.333 93.8354C53.3794 93.7537 53.4032 93.6612 53.4018 93.5673C53.0917 88.3963 51.359 82.7049 52.835 77.6401C53.9045 74.0511 56.7601 71.7364 60.065 70.2074C61.5837 69.4959 65.4126 67.5528 66.557 69.6552C67.7976 71.9912 65.4874 77.1623 65.1238 79.6363C64.7816 82.3121 64.8457 85.2002 67.1131 87.069C67.1793 87.1332 67.2612 87.1792 67.3507 87.2026C67.4402 87.226 67.5343 87.2259 67.6238 87.2024C67.7132 87.1788 67.795 87.1326 67.8611 87.0683C67.9272 87.004 67.9753 86.9237 68.0008 86.8354C69.7869 81.675 69.9688 75.973 70.696 70.6002C71.3484 65.8327 70.2468 60.4599 71.7655 55.8834L70.7923 56.0108C74.4501 61.3199 73.9153 66.0344 72.0222 71.7682C70.7281 75.6651 69.9474 79.3177 71.5944 83.2465C71.7121 83.5332 72.065 83.788 72.3752 83.565C77.3271 79.9973 80.418 71.6302 80.2148 65.8008C80.2071 64.5456 79.9376 63.3055 79.4233 62.1588C78.8672 61.0439 77.5303 60.2581 77.4447 59.1857C77.3592 58.1132 79.2308 55.3844 79.787 54.3969C80.4608 53.197 81.188 52.0184 81.926 50.8504C83.7335 47.9623 85.648 45.1378 87.402 42.2178C90.3004 37.3972 92.0437 32.0244 94.8886 27.2143C96.3088 25.009 97.9422 22.9464 99.7657 21.0558C101.402 19.2613 105.231 18.9959 106.429 21.5549C107.092 22.9883 106.846 23.1263 105.734 23.997C105.049 24.5279 104.365 24.581 103.98 25.4623C103.423 26.7471 104.204 29.1044 104.461 30.3679C105.103 32.7533 105.462 35.2051 105.53 37.6733C105.526 38.4671 105.396 39.2554 105.145 40.0093C104.076 42.1329 104.076 41.1666 103.006 40.4234C101.904 39.5099 100.993 38.3918 100.322 37.1317C97.0063 31.8226 97.4983 24.6554 103.776 21.7672C110.825 18.5818 111.402 27.1931 109.958 31.7589C109.787 32.3111 110.696 32.7252 110.942 32.1624C111.284 31.3873 112.215 29.0407 113.167 28.8602C114.343 28.6584 114.621 29.4548 115.306 30.3679C116.375 31.7483 117.242 33.2455 118.247 34.6683C119.424 36.3247 120.835 38.459 122.974 38.9156C126.514 39.6801 127.317 36.9831 126.076 34.3285C124.926 32.1788 123.553 30.154 121.98 28.2868C121.279 27.5863 120.685 26.7887 120.215 25.9189C119.862 24.6978 120.589 24.6554 122.044 24.2306C124.847 23.4097 127.837 23.4765 130.6 24.4218C131.67 24.8359 134.696 26.8533 133.306 28.4567C132.557 29.3167 130.097 27.7983 129.124 27.1931C129.042 27.1474 128.95 27.1234 128.856 27.1235C128.762 27.1236 128.67 27.1477 128.588 27.1937C128.506 27.2396 128.438 27.3057 128.389 27.3856C128.341 27.4655 128.314 27.5565 128.311 27.6497C127.98 31.897 128.718 35.8257 132.033 38.7457C132.101 38.8095 132.183 38.8552 132.273 38.8783C132.363 38.9015 132.458 38.9013 132.548 38.8779C132.638 38.8545 132.721 38.8086 132.788 38.7445C132.855 38.6805 132.904 38.6005 132.932 38.5121C133.456 35.6027 133.766 32.6402 134.557 29.7733C135.52 26.2906 138.493 20.4187 142.953 20.6311C146.515 20.801 147.691 25.7809 151.723 25.3455C157.434 24.7403 161.017 18.5074 167.007 18.1677C174.932 17.7217 182.568 21.1938 185.606 28.7009C188.087 34.8594 188.344 41.6869 189.435 48.1746C190.718 55.8091 193.905 63.1781 196.718 70.356C199.439 77.7241 202.964 84.7742 207.231 91.38C211.948 98.3561 217.435 104.886 222.761 111.406C228.429 118.34 234.173 125.21 239.713 132.228C245.06 139.034 250.74 146.032 254.868 153.634C258.996 161.237 260.151 169.891 254.258 177.058C249.306 183.089 242.087 185.754 234.814 187.963C228.301 189.76 221.91 191.969 215.681 194.578C208.194 197.944 200.333 198.475 192.301 199.728C188.884 200.156 185.533 200.997 182.322 202.234C179.114 203.582 176.001 206.035 172.397 205.971C164.696 205.844 164.001 197.647 158.301 194.589C154.985 192.826 149.499 192.093 146.236 194.419C143.627 196.277 142.889 199.643 142.557 202.627C142.044 207.161 142.654 211.822 141.798 216.324C140.728 221.909 137.113 227.261 133.541 231.572C129.723 236.191 123.841 241.967 117.263 241.033C109.776 239.971 107.231 231.689 107.873 225.19C108.942 214.806 119.83 207.033 128.343 202.542C136.643 198.156 150.493 193.58 157.466 202.627C163.017 209.836 156.825 216.037 155.969 223.481C154.985 232.028 159.531 240.608 155.723 248.89C150.611 259.986 136.044 259.253 127.744 266.707C120.151 273.524 117.573 284.461 111.926 292.69C108.91 297.086 104.643 301.121 98.9849 301.333C92.033 301.609 87.0597 294.962 80.0223 295.483C73.6051 296.003 69.1452 301.609 63.0062 302.99C55.3591 304.72 47.2628 299.199 43.0382 293.295C38.375 286.786 37.5622 278.578 42.4606 271.931C45.1237 268.321 49.9473 265.561 54.1077 268.82C56.3323 270.562 56.8992 273.503 58.5355 275.69C61.434 279.534 66.9206 279.863 71.2629 278.621C76.4608 277.134 80.7495 273.312 83.6587 268.852C86.7144 264.45 88.1427 259.134 87.7014 253.806C87.7014 253.456 87.2629 253.095 86.8886 253.35C82.6105 256.397 77.9688 259.721 72.6533 260.474C66.4393 261.419 61.2521 257.756 57.6799 253.042C50.5783 243.613 53.0917 230.744 59.712 221.846C64.3217 215.602 71.8618 209.751 79.5945 208.042C83.7977 207.129 87.7549 208.159 89.9474 212.066C92.8886 217.312 91.4555 223.46 88.4287 228.291C82.4287 237.847 72.1827 243.411 62.1826 247.998C57.0168 250.366 52.097 253.307 46.867 255.537C41.8296 257.661 38.0542 256.079 34.236 252.415C26.4498 244.983 22.3963 234.364 18.9418 224.426C15.7332 215.252 12.5247 206.067 9.4872 196.818C3.2091 177.865 -1.92461 156.586 2.84546 136.698C4.90706 127.599 9.54994 119.275 16.2252 112.712C17.2947 111.65 19.3589 109.654 21.145 110.142C22.6103 110.546 23.1771 112.531 23.5514 113.784C25.5942 120.612 24.3215 131.156 30.2253 136.263C31.6289 137.339 33.3595 137.908 35.1323 137.877C36.9051 137.846 38.6145 137.217 39.9793 136.093C41.9258 134.405 41.9472 131.846 42.5569 129.584C43.8296 124.7 48.8778 124.902 52.9099 126.399C57.4125 128.055 61.466 130.763 65.6158 133.163C69.7655 135.562 73.8725 138.132 77.9046 140.829C85.0597 145.596 92.4287 149.653 101.338 148.347C106.172 147.635 110.012 145.161 114.579 143.749C117.787 142.687 121.445 142.783 123.231 146.064C124.589 148.538 123.798 151.978 122.022 154.027C121.37 154.771 119.541 156.565 118.493 155.461C117.937 154.866 118.771 152.35 119.006 151.659C119.637 150.018 120.614 148.53 121.873 147.295C123.145 145.957 123.456 146.233 124.279 147.518C126.589 151.245 127.21 158.041 125.595 162.108C124.322 165.293 121.317 167.502 118.033 165.633C115.894 164.454 114.119 162.84 112.044 161.63C111.963 161.583 111.871 161.559 111.777 161.559C111.684 161.559 111.592 161.583 111.51 161.629C111.429 161.675 111.362 161.742 111.315 161.822C111.267 161.902 111.242 161.994 111.242 162.086C111.242 165.272 112.493 168.659 111.809 171.791C111.584 172.79 110.932 174.807 109.83 174.977C108.311 175.274 109.83 175.635 108.996 174.977C108.482 174.584 108.236 172.853 108.087 172.312C107.017 168.404 106.354 164.38 105.317 160.451C104.867 158.774 104.183 154.771 102.183 154.08C100.365 153.433 98.9742 155.896 98.7175 157.34C97.9903 161.311 99.1026 166.185 99.3272 170.188C99.5732 174.435 99.1347 179.192 101.327 183.036C103.905 187.549 109.616 188.696 114.386 187.559C120.226 186.168 125.327 182.006 129.22 177.631C131.289 175.389 133.057 172.89 134.482 170.199C136.536 166.121 136.942 161.587 137.905 157.191C139.541 149.653 145.744 143.186 144.504 135.169C144.475 135.056 144.409 134.956 144.316 134.885C144.223 134.813 144.108 134.775 143.99 134.776C141.113 134.904 134.857 135.371 133.723 131.74C132.654 128.384 136.932 124.7 139.188 122.799C144.536 118.223 150.012 113.997 153.616 107.87C157.894 100.586 159.199 91.826 160.985 83.7031C162.91 74.9961 164.9 66.2255 166.065 57.3806C167.017 50.1284 167.52 42.5789 170.108 35.6664C170.726 33.8808 171.594 32.1902 172.686 30.644C174.108 28.7327 174.151 30.3361 174.825 32.0987C175.94 35.5234 176.408 39.1233 176.205 42.7169C176.044 50.4575 174.365 58.1026 172.836 65.6628C171.606 71.7682 170.793 77.7675 170.162 83.9473C168.472 100.565 164.6 118.01 146.728 123.935C146.076 124.148 146.354 125.178 147.007 124.997C151.198 123.69 155.059 121.504 158.326 118.588C161.594 115.671 164.193 112.092 165.948 108.093C169.584 99.9807 170.557 90.934 171.402 82.174C172.354 72.469 174.729 63.0613 176.215 53.4412C177.456 45.4351 178.75 35.7089 174.172 28.4567C174.131 28.3876 174.074 28.3289 174.006 28.2848C173.939 28.2407 173.862 28.2125 173.781 28.2023C173.701 28.1921 173.619 28.2001 173.543 28.2258C173.466 28.2514 173.396 28.2941 173.338 28.3505C167.991 33.9144 166.921 42.7594 165.958 50.0541C164.45 61.3093 162.44 72.3522 159.991 83.4588C157.659 94.0027 155.948 104.876 148.418 113.19C145.285 116.641 141.563 119.391 138.076 122.459C135.83 124.424 132.942 127.206 132.611 130.359C132.504 131.229 132.671 132.11 133.088 132.882C133.506 133.653 134.153 134.278 134.942 134.67C136.123 135.255 137.404 135.615 138.718 135.732C139.787 135.881 141.295 135.594 142.247 135.923C144.322 136.635 143.712 139.279 143.231 141.073C141.916 146.021 138.611 150.173 137.317 155.163C135.841 160.865 135.584 166.684 132.365 171.823C127.53 179.564 116.504 190.352 106.375 186.084C98.8887 182.898 100.472 171.271 100.087 164.486C99.9582 162.299 98.7817 157.446 100.739 155.726C102.878 153.836 103.948 159.591 104.386 161.11C105.231 164.295 105.83 167.597 106.611 170.825C107.06 172.662 107.413 175.136 108.75 176.57C108.831 176.655 108.938 176.71 109.055 176.725C109.172 176.741 109.291 176.716 109.391 176.655C114.846 173.119 112.279 167.544 112.322 162.161L111.52 162.617C114.172 164.178 116.964 167.289 120.151 167.661C122.932 167.99 125.242 165.537 126.322 163.223C128.846 157.913 127.391 149.419 123.83 144.896C123.727 144.8 123.591 144.747 123.45 144.747C123.309 144.747 123.174 144.8 123.071 144.896C119.37 147.879 116.921 151.712 117.573 156.576C117.573 156.716 117.63 156.851 117.73 156.951C117.83 157.051 117.966 157.107 118.108 157.107C124.525 156.83 127.413 147.55 122.386 143.526C119.413 141.137 115.488 142.241 112.3 143.526C106.6 145.83 101.402 148.219 95.0384 147.508C89.5196 146.892 84.6747 144.089 80.065 141.137C75.4554 138.185 70.8458 135.116 66.065 132.345C60.7174 129.223 50.3751 121.111 43.7761 125.549C41.6371 127.004 41.5087 129.542 40.9526 131.846C40.7954 132.663 40.4762 133.442 40.0136 134.136C39.5509 134.83 38.9541 135.426 38.2576 135.889C37.5611 136.353 36.7789 136.674 35.9564 136.835C35.1338 136.995 34.2873 136.992 33.4659 136.826C28.7707 135.955 27.5515 129.775 26.7814 125.91C26.0541 122.236 25.8295 106.139 18.5354 109.718C16.2359 110.843 14.3856 113.03 12.7599 114.92C9.52397 118.659 6.85746 122.848 4.84547 127.354C0.85615 136.401 -0.331021 146.499 0.0753978 156.448C0.973797 178.131 9.15565 198.146 15.8616 218.49C19.252 228.769 22.6958 239.567 29.2734 248.349C31.7333 251.63 34.8242 255.218 38.6745 256.917C41.8831 258.34 45.0916 257.554 48.1291 256.153C53.6799 253.647 59.0061 250.642 64.5356 248.083C69.9919 245.712 75.1382 242.692 79.8618 239.089C86.7282 233.6 94.4822 224.904 92.3539 215.4C88.2576 197.148 66.0329 212.013 59.4981 220.37C53.5516 227.972 50.2467 238.601 53.7227 247.977C56.7922 256.238 64.9741 263.458 74.2362 261.292C79.1453 260.113 83.4234 257.14 87.4769 254.263L86.6747 253.806C87.5196 261.239 83.7121 268.895 78.1185 273.694C75.1554 276.353 71.3677 277.93 67.3805 278.164C62.4928 278.302 59.8938 276.115 57.7548 272.038C55.466 267.663 51.3377 264.679 46.2574 267.206C41.1772 269.734 37.8937 276.519 38.0007 282.125C38.2253 293.805 51.4874 307.131 63.7976 303.871C71.2843 301.885 76.7602 294.219 85.1881 297.32C91.4234 299.613 96.2683 304.062 103.284 301.567C113.359 297.925 117.263 285.119 121.905 276.635C124.942 271.103 128.44 266.665 134.247 263.894C140.055 261.122 146.322 259.774 151.359 255.941C153.659 254.156 155.499 251.854 156.728 249.226C157.958 246.597 158.54 243.716 158.429 240.82C158.429 236.265 157.103 231.827 156.932 227.271C156.75 222.185 158.654 218.437 160.226 213.808C163.98 202.765 153.37 195.629 143.402 196.585C132.408 197.647 121.391 204.198 113.83 211.981C107.199 218.798 103.466 229.745 110.054 238.081C118.547 248.837 131.359 236.775 136.696 229.289C139.755 225.042 142.536 220.125 143.113 214.827C143.648 209.889 142.835 204.718 144.183 199.877C146.033 192.985 154.825 192.444 159.734 196.935C164.076 200.885 165.37 206.98 172.461 207.086C175.274 207.086 177.745 205.738 180.172 204.517C184.444 202.494 189.023 201.185 193.723 200.641C201.766 199.494 209.424 198.709 216.9 195.258C230.098 189.173 248.847 188.812 257.05 175.083C265.488 161.014 251.135 145.214 243.018 134.734C237.125 127.1 230.943 119.699 224.836 112.245C218.419 104.387 211.531 96.5404 206.269 87.8229C201.36 79.7318 197.991 70.8338 194.771 61.9889C193.285 58.3309 192.049 54.5778 191.071 50.7548C190.226 46.8686 189.841 42.908 189.242 38.9793C188.29 32.7146 186.921 25.1757 181.445 21.0877C177.199 17.9128 170.183 16.1396 164.985 17.3288C159.787 18.5181 153.317 27.3524 148.001 22.7547C144.643 19.856 142.654 18.3906 138.515 21.5336C133.317 25.4517 133.017 32.3429 131.948 38.1935L132.846 37.9599C129.723 35.1992 129.135 31.589 129.434 27.6072L128.632 28.0638C130.055 28.9663 131.712 29.3698 133.145 30.2618C133.206 30.2977 133.272 30.3213 133.342 30.3311C133.411 30.3409 133.482 30.3368 133.55 30.319C133.618 30.3011 133.681 30.27 133.737 30.2273C133.792 30.1847 133.838 30.1314 133.873 30.0706C137.424 21.7354 123.178 21.1195 118.76 24.6554C118.69 24.7198 118.639 24.8031 118.614 24.8953C118.59 24.9875 118.592 25.0848 118.621 25.1757C120.129 28.9345 124.643 31.5466 125.509 35.6346C125.98 37.8856 124.087 38.321 122.301 37.4078C120.514 36.4946 119.648 34.8063 118.643 33.3517C117.178 31.228 115.873 28.7009 113.691 27.1719C113.588 27.1136 113.468 27.0904 113.35 27.1057C113.233 27.121 113.123 27.1741 113.038 27.2568C111.817 28.5452 110.787 30.0005 109.98 31.5784L110.964 31.9819C111.948 28.892 112.397 24.5492 110.322 21.7354C108.097 18.7517 104.151 19.9728 101.52 21.7354C93.6908 27.0445 97.4876 38.0661 104.14 42.5364C104.242 42.596 104.361 42.621 104.479 42.6076C104.596 42.5942 104.707 42.5431 104.792 42.4621C106.728 40.211 106.782 37.514 106.386 34.6789C106.119 32.7995 105.616 30.9519 105.317 29.0831C105.113 27.9364 104.611 26.2056 105.52 25.1863C105.787 24.8783 106.354 24.889 106.675 24.6341C107.915 23.6785 108.472 23.2325 107.744 21.5761C106.835 19.4525 104.397 17.3288 101.98 17.9447C99.5625 18.5605 97.0491 22.2981 95.5624 24.3156C93.0063 27.6285 91.4983 31.6209 89.7763 35.3797C85.894 43.8743 79.3271 50.9884 76.0757 59.8015C76.0456 59.9137 76.0533 60.0326 76.0978 60.14C76.1422 60.2474 76.2209 60.3374 76.3217 60.3962C80.7175 62.8171 79.1667 69.2411 77.8511 73.0424C77.103 75.1908 76.1014 77.2438 74.8672 79.1585C73.9046 80.6556 72.4394 83.6075 71.8297 80.5813C70.9313 76.0792 73.434 71.9169 74.3752 67.6377C74.844 65.5389 74.8486 63.3641 74.3889 61.2634C73.9291 59.1626 73.0158 57.1858 71.7121 55.4693C71.6585 55.3804 71.5799 55.309 71.4859 55.2639C71.3919 55.2188 71.2867 55.202 71.1833 55.2156C71.0798 55.2291 70.9826 55.2724 70.9036 55.3401C70.8246 55.4079 70.7673 55.4971 70.7388 55.5967C69.1452 60.205 70.2682 65.5247 69.6158 70.3029C68.8778 75.6969 68.7067 81.3671 66.9206 86.5381L67.819 86.3045C64.1078 83.3102 66.7495 77.1304 67.434 73.3079C67.8297 71.0356 68.1826 67.9988 65.1666 67.6802C60.4072 67.2024 54.1933 71.7045 52.3323 75.8137C49.8296 81.314 51.9473 87.8972 52.3323 93.6204L53.1451 93.1638C48.1612 89.5218 46.9205 83.6818 48.6318 77.9586C49.3313 75.6409 50.4157 73.4553 51.8403 71.4921C52.6437 70.3777 53.5495 69.3398 54.5462 68.3916C54.8139 68.0718 55.1274 67.7928 55.4767 67.5634C56.0115 66.8095 56.2361 66.8414 56.1398 67.659C56.2627 68.2831 56.2627 68.9249 56.1398 69.549C55.3484 74.3378 50.8671 78.394 47.4767 81.5369C44.0863 84.6799 40.4713 87.6424 37.1665 90.9128C34.375 93.6735 31.7654 96.6572 30.375 100.374C28.7279 104.791 28.8135 109.856 29.2306 114.485C29.3589 116.768 29.7012 119.954 32.1397 121.015C34.5782 122.077 38.1076 120.251 39.9686 118.807C41.8296 117.363 43.1772 114.719 45.7868 114.092C48.9954 113.328 52.3002 115.473 54.9206 116.97C58.9954 119.306 62.5997 121.153 67.3484 121.748C78.2469 123.107 88.525 118.063 96.6748 111.268C108.44 101.488 117.295 88.1733 118.675 72.7345C119.092 68.0625 118.76 62.1163 114.579 59.0583C109.648 55.4799 101.744 57.646 97.0063 60.3749C82.7602 68.4447 77.8618 89.6068 80.279 104.642C81.5731 112.744 85.4875 119.964 93.2095 123.5C100.931 127.036 109.702 127.386 118.033 127.153C127.349 126.887 136.974 125.868 146.151 127.917C157.916 130.55 163.894 139.385 164.868 151.075C165.392 157.372 164.14 163.562 164.301 169.848C164.579 174.985 165.609 180.053 167.36 184.894C169.499 191.382 172.269 197.976 172.301 204.899C172.333 211.822 169.349 217.641 165.884 223.544C163.081 228.301 160.878 232.846 160.921 238.474C160.921 241.542 161.392 244.59 161.338 247.669C161.201 251.546 160.02 255.315 157.916 258.584C151.809 268.735 141.873 276.317 132.557 283.452C125.188 289.122 116.889 294.856 112.942 303.563C108.343 313.703 110.022 326.275 111.744 336.883C113.776 349.444 117.413 362.069 121.274 374.195C122.797 379.476 125.17 384.478 128.301 389.008C130.333 391.779 132.825 394.317 135.103 396.886C139.99 402.44 146.001 408.566 153.691 409.713C160.354 410.775 168.6 407.016 171.039 400.496C173.83 393.064 170.579 383.911 167.83 376.903C164.536 368.557 160.119 360.774 156.065 352.8C151.787 344.432 149.039 334.621 142.279 327.772C138.311 323.748 130.739 320.669 129.445 328.41C129.05 332.053 129.329 335.738 130.268 339.283C131.616 345.405 133.359 351.434 135.488 357.333C139.616 368.723 144.872 379.678 151.178 390.037C178.333 435.069 220.526 467.879 258.504 503.365C278.825 522.319 297.884 542.653 319.959 559.642C323.938 562.7 328.13 566.374 332.847 568.295C336.686 569.856 340.334 568.964 343.949 567.234C347.831 565.365 351.81 562.774 353.574 558.675C354.911 555.554 354.74 552.081 354.291 548.79C350.676 522.181 337.66 497.823 334.269 471.15C332.483 457.134 333.97 443.022 334.194 428.964C334.316 415.389 333.206 401.832 330.879 388.455C328.526 374.259 325.136 360.253 322.473 346.11C321.01 338.967 320.042 331.734 319.574 324.46C319.317 319.246 319.489 313.841 317.745 308.851C311.328 290.428 285.114 297.755 270.611 296.842C257.499 296.024 244.943 290.896 232.6 286.818C226.854 284.921 220.959 283.504 214.975 282.582C208.911 281.615 202.675 280.691 197.082 278.016C193.167 276.147 186.857 272.335 185.67 267.716C184.771 264.244 188.707 263.055 191.392 262.492C198.718 260.974 206.718 261.908 213.937 263.554C221.905 265.369 236.568 270.402 242.986 262.354C247.97 256.11 238.911 249.612 233.98 247.255C225.617 243.177 216.173 241.096 207.028 239.663C203.609 239.034 200.149 238.647 196.675 238.505C193.682 238.615 190.709 239.045 187.809 239.79C183.887 240.715 179.916 241.424 175.916 241.914C172.782 242.211 168.226 242.593 165.884 240.013C161.285 234.917 167.616 229.799 172.044 228.333C178.376 226.21 185.424 226.21 192.023 226.326C200.036 226.544 208.032 227.171 215.98 228.206C222.804 229.045 229.595 230.075 236.376 231.147C241.98 232.039 247.691 232.485 253.253 233.589C257.531 234.439 262.879 235.777 265.253 239.727C266.825 242.286 265.51 243.783 262.654 244.165C260.098 244.515 258.301 242.731 256.954 240.799C254.954 237.953 253.852 234.598 251.916 231.71C249.595 228.238 245.681 226.029 241.916 224.415C232.665 220.444 222.098 218.872 212.13 217.896C201.627 216.834 190.376 216.887 180.643 221.463C178.504 222.461 173.402 225.275 177.434 227.346C182.033 229.671 188.932 229.13 193.916 229.289C201.877 229.386 209.801 230.391 217.531 232.283C228.483 235.129 238.846 237.932 250.226 236.265C254.589 235.738 258.898 234.835 263.103 233.568C265.638 232.729 268.055 231.444 268.643 228.556C269.307 225.233 266.43 222.419 264.141 220.455C260.387 217.269 256.205 214.487 252.376 211.355C242.558 203.338 232.857 194.971 221.638 188.887C219.092 187.506 206.087 179.861 204.525 186.084C203.766 189.205 206.665 193.283 208.804 195.289C212.215 198.613 216.761 200.599 220.953 202.722C226.526 205.568 230.932 209.507 235.798 213.34C238.312 215.326 257.97 231.211 257.135 220.072C256.718 214.423 251.895 211.578 247.916 208.233C245.168 206.119 242.693 203.676 240.547 200.96C238.504 198.05 239.638 194.589 243.756 195.566C247.51 196.489 250.836 199.983 253.499 202.563C256.472 205.451 259.242 208.541 262.055 211.61C266.75 216.77 272.397 220.773 277.659 225.318C280.633 227.887 284.141 230.627 286.216 234.067C289.371 239.376 283.959 242.031 279.285 240.926C278.216 240.672 274.002 239.026 274.633 238.113C275.649 236.658 281.97 237.783 283.285 238.017C288.258 238.888 293.029 240.672 297.799 242.264C309.702 246.193 321.927 248.879 333.029 254.921C343.35 260.538 354.291 268.916 359.649 279.566C362.858 285.937 362.697 292.977 362.569 299.889C362.282 306.506 363.077 313.126 364.922 319.49C368.879 332.498 373.895 345.154 378.997 357.716C384.098 370.277 389.414 383.04 393.874 395.941C398.336 409.374 402.011 423.052 404.879 436.906C407.96 450.986 411.296 464.938 414.847 478.912C416.733 485.829 418.01 492.895 418.665 500.031C419.19 507.198 418.73 514.472 418.665 521.66C418.665 528.658 418.665 535.666 419.04 542.653C419.361 549.374 420.28 556.053 420.612 562.774C420.922 569.07 420.366 575.58 416.698 580.931C412.569 586.973 406.366 588.852 399.296 588.364C390.58 587.684 381.532 585.284 373.008 583.246C368.704 582.365 364.516 580.997 360.526 579.168C359.04 578.436 357.189 577.501 356.344 575.983C354.911 573.488 356.548 571.29 358.954 570.493C362.269 569.432 365.959 569.931 369.243 568.72C373.168 567.265 376.601 563.677 378.719 560.226C382.034 554.736 382.366 546.687 376.516 542.716C368.483 537.28 353.842 543.778 361.745 553.812C369.649 563.846 377.906 543.725 379.927 538.522C382.02 533.705 383.597 528.684 384.633 523.54C385.906 515.81 384.708 507.613 384.933 499.755C385.168 491.749 385.553 480.834 393.607 476.469C399.81 473.114 402.248 480.058 403.232 484.964C404.558 491.335 404.676 497.982 404.826 504.491C404.943 509.8 404.687 516.383 408.034 520.843C411.628 525.674 415.981 519.919 417.767 516.596C422.462 507.697 422.195 497.377 422.633 487.608C423.96 458.535 423.179 429.314 426.911 400.401C428.644 386.969 435.254 375.204 438.377 362.175C440.367 354.555 439.781 346.497 436.708 339.24C433.585 331.425 422.505 311.92 412.879 324.258C408.291 330.151 406.943 338.253 410.633 344.9C412.327 347.789 414.68 350.243 417.504 352.063C420.328 353.883 423.543 355.02 426.89 355.38C442.548 357.1 453.104 340.514 447.436 326.711C441.297 311.845 424.526 301.025 410.238 294.856C403.82 292.074 396.088 289.451 389.029 289.175C381.542 288.889 378.751 294.421 382.323 300.749C384.526 304.667 387.853 307.938 391.018 311.081C395.121 315.185 398.927 319.57 402.409 324.205C410.334 334.589 417.521 345.441 425.938 355.433C443.682 376.605 461.789 397.428 481.885 416.466C488.43 422.667 494.997 429.208 502.794 433.837C508.88 437.49 516.377 440.038 523.19 436.747C531.746 432.638 536.538 422.062 538.163 413.302C540.174 402.408 538.313 391.067 535.211 380.555C532.11 370.043 527.832 359.107 521.928 349.826C516.024 340.546 507.682 333.697 498.73 327.688C487.757 320.319 476.388 313.587 465.575 306.016C453.446 297.521 441.66 288.591 430.131 279.332C408.944 262.343 388.516 244.218 369.917 224.405C361.692 215.645 353.221 206.577 346.387 196.712C343.232 192.189 340.494 187.358 337.585 182.675C329.852 170.252 321.884 156.809 310.964 146.828C307.991 144.11 303.809 140.595 299.435 141.158C294.462 141.795 292.173 148.272 295.681 151.914C297.563 153.868 300.365 153.592 302.419 152.02C304.997 150.035 304.975 146.892 303.585 144.195C300.301 137.824 291.681 135.116 286.943 141.604C285.824 143.189 285.148 145.039 284.983 146.968C284.818 148.896 285.169 150.833 286.002 152.583C286.815 154.346 288.601 156.83 290.911 156.268C293.221 155.705 293.542 152.583 293.328 150.629C292.89 146.51 289.98 143.462 287.125 140.691C283.852 137.505 280.226 134.723 276.879 131.623C273.531 128.522 270.29 125.252 265.873 123.638C257.948 120.654 250.408 116.524 242.269 114.018C239.927 113.296 235.659 111.693 233.713 114.103C231.264 117.161 235.584 120.007 237.649 121.536C242.996 125.592 249.125 128.406 254.216 132.717C257.777 135.732 260.205 139.841 262.911 143.579C265.221 146.764 267.713 150.438 271.178 152.477C272.643 153.337 275.98 154.601 277.595 153.305C280.665 150.704 274.109 143.749 272.558 141.891C267.21 135.52 260.397 130.943 253.05 126.919C248.269 124.286 242.975 121.674 237.51 120.803C235.371 120.463 232.494 120.23 231.092 122.194C229.542 124.318 230.889 127.577 231.852 129.627C234.134 134.28 237.169 138.53 240.836 142.209C249.456 151.298 259.831 158.529 268.643 167.47C278.067 177.012 286.655 187.335 294.312 198.326C300.836 207.766 306.772 218.087 315.595 225.668C320.44 229.82 327.424 233.005 333.959 231.519C339.831 230.181 342.259 223.884 340.088 218.522C337.842 212.979 332.077 208.137 326.729 205.685C322.836 203.911 318.408 204.018 318.997 209.327C319 209.443 319.04 209.556 319.111 209.65C319.182 209.743 319.28 209.812 319.392 209.847C329.777 212.342 328.066 200.928 326.387 194.44C324.932 188.855 322.911 183.45 321.039 178.003C319.66 174.043 317.382 169.7 319.767 165.75C323.457 159.655 332.034 157.691 338.601 156.767C345.506 155.699 352.547 155.839 359.403 157.181C377.403 161.078 394.045 173.437 396.334 192.699C397.296 200.768 395.371 209.571 389.35 215.4C384.676 219.913 376.676 223.343 370.184 220.816C361.628 217.481 358.826 204.538 363.093 196.999C365.521 192.752 369.938 191.913 374.291 193.814C381.628 196.999 384.216 204.527 384.58 211.949C385.318 227.367 379.532 242.604 377.254 257.724C374.344 277.028 373.243 297.288 377.532 316.485C382.205 337.435 395.607 355.114 407.136 372.762C409.988 377.122 412.744 381.546 415.403 386.034C418.184 390.738 421.478 396.069 421.639 401.675C421.863 410.17 416.922 417.178 411.328 422.996C402.889 431.896 393.493 439.851 383.307 446.717C369.249 456.254 354.011 463.952 337.97 469.621C322.997 474.792 306.248 478.349 290.376 475.365C276.74 472.796 261.702 464.067 260.761 448.894C260.002 436.683 267.905 423.41 279.103 418.292C292.184 412.272 303.039 422.094 306.997 434.071C311.347 447.936 311.673 462.737 307.938 476.777C304.526 489.519 295.029 503.726 279.873 498.258C268.012 494.011 256.216 480.812 242.515 485.155C235.777 487.279 231.467 492.418 231.424 499.468C231.371 507.836 233.969 515.396 226.258 521.331C212.6 531.865 230.975 546.815 241.232 551.19C246.055 553.26 253.157 555.755 258.205 552.973C263.617 549.979 262.087 543.821 259.071 539.733C251.028 528.838 234.547 519.654 220.985 525.281C217.589 526.641 214.742 529.079 212.889 532.215C210.868 535.825 210.75 540.019 209.991 543.969C208.034 553.409 201.039 558.41 193.349 563.305C186.205 567.86 180.44 572.798 175.766 579.933C170.076 588.629 166.14 598.302 161.798 607.689C156.868 618.307 150.846 628.341 145.295 638.609C139.466 649.418 133.766 660.291 128.279 671.281C125.798 676.229 123.498 681.283 120.932 686.147C119.013 689.595 117.274 693.139 115.723 696.765C113.937 701.256 112.675 709.337 118.568 711.63C123.99 713.754 129.937 707.839 132.803 704.059C138.45 696.627 140.985 687.325 144.087 678.671C147.723 668.563 152.386 658.837 156.087 648.728C159.21 640.159 162.087 631.028 167.028 623.244C173.192 613.65 180.811 605.058 189.616 597.771C192.825 595.117 197.542 591.231 202.055 591.401C207.649 591.655 207.723 599.545 207.595 603.527C207.291 606.999 206.536 610.418 205.349 613.699C203.83 618.689 202.14 623.627 200.536 628.564C196.804 640.074 193.05 651.754 191.306 663.763C190.312 670.697 189.007 681.581 195.584 686.486C204.729 693.346 218.932 683.726 225.959 678.268C233.445 672.47 240.109 665.728 246.953 659.219C254.353 652.222 262.411 645.946 271.018 640.478C289.66 628.543 310.59 618.339 332.205 613.062C343.018 610.339 354.142 609.022 365.296 609.144C374.612 609.313 386.451 609.876 394.28 615.578C400.826 620.346 402.248 628.692 403.168 636.188C404.48 646.775 406.79 657.216 410.066 667.374C416.879 688.525 426.676 708.572 433.863 729.596C434.088 730.233 435.115 729.957 434.933 729.309L434.869 729.363Z" fill="black"/>
</svg>
