<svg width="13" height="10" viewBox="0 0 13 10" fill="none" xmlns="http://www.w3.org/2000/svg">
<path d="M5.23664e-05 2.46C0.0019006 2.14597 0.0700549 1.83587 0.200053 1.55C0.336333 1.24083 0.558724 0.977413 0.840671 0.791222C1.12262 0.605031 1.4522 0.503933 1.79005 0.5L10.2101 0.5C10.5479 0.503933 10.8775 0.605032 11.1594 0.791223C11.4414 0.977413 11.6638 1.24083 11.8001 1.55C11.9681 1.90574 12.0328 2.30153 11.9868 2.69227C11.9409 3.083 11.7861 3.45297 11.5401 3.76L7.33005 8.86C7.17084 9.05999 6.96857 9.22151 6.7383 9.33252C6.50803 9.44353 6.25568 9.50118 6.00005 9.50118C5.74442 9.50118 5.49208 9.44353 5.26181 9.33252C5.03154 9.22151 4.82927 9.05999 4.67005 8.86L0.460051 3.76C0.161925 3.39238 -0.000513183 2.93331 5.23664e-05 2.46Z" fill="#A8A8A8"/>
</svg>
