<svg width="1600" height="276" viewBox="0 0 1600 276" fill="none" xmlns="http://www.w3.org/2000/svg">
<path d="M-440.514 11.52L-513 0.5V275.5H2114V230.418H1772.06H1696.08L1667.58 225.91L1638.09 219.398L1614.59 213.387L1594.6 207.877L1583.6 203.369L1568.6 197.358L1553.61 191.347L1538.61 186.338L1523.61 180.828L1507.12 176.32L1491.62 171.311L1478.12 167.303L1463.12 163.296L1446.13 159.79L1432.13 156.283L1418.63 153.278L1402.64 149.771L1384.64 146.766L1367.64 144.261L1352.15 141.757L1332.15 139.753L1312.15 137.249L1294.16 135.245L1276.66 133.241L1262.66 132.24L1247.16 131.238L1231.17 130.236L1215.17 129.234L1198.67 128.232H1186.18H1168.68H1153.68H1139.69H1124.19H1105.19H1088.7H1070.2L1052.7 129.234L1038.2 130.236H1023.71L1007.71 131.238L992.214 132.24L974.717 133.241L956.22 135.245H938.724L919.727 136.247L901.231 138.25L884.234 140.254L868.737 141.757L850.24 143.76L832.244 144.762L815.247 146.766L797.75 147.768L781.754 149.771L765.757 152.276L749.26 153.779L732.763 154.781L717.766 156.784L702.769 157.786L689.271 159.79L673.274 160.791L658.777 161.793L643.28 163.797L628.783 165.801L610.786 167.804L595.789 168.806L578.792 170.309L564.295 171.311L549.298 172.312L531.801 174.316L515.804 175.318L499.807 176.32L485.31 177.322L471.313 178.323H456.315L440.319 180.327L426.321 181.329L412.824 182.331L397.827 183.332H377.331H357.834H336.338H318.342H299.345H278.849L260.853 182.331L240.857 181.329L223.36 180.327L202.864 179.325L163.871 175.318L120.379 169.307L82.3867 163.797L43.894 155.782L-0.597534 145.263L-36.5907 139.252L-75.0834 128.733L-125.574 111.201L-176.564 95.1721L-239.552 67.622L-327.035 37.5674L-440.514 11.52Z" fill="white"/>
</svg>
